HIERARCHY
ROOT Hips
{
	OFFSET -3.958830 18.904000 13.208200
	CHANNELS 6 Xposition Yposition Zposition Zrotation Yrotation Xrotation 
	JOINT LHipJoint
	{
		OFFSET 0.000000 0.000000 0.000000
		CHANNELS 3 Zrotation Yrotation Xrotation
		JOINT LeftUpLeg
		{
			OFFSET 1.800000 -1.400000 0.085000
			CHANNELS 3 Zrotation Yrotation Xrotation
			JOINT LeftLeg
			{
				OFFSET 2.215000 -6.000000 0.000000
				CHANNELS 3 Zrotation Yrotation Xrotation
				JOINT LeftFoot
				{
					OFFSET 2.500000 -6.900000 0.000000
					CHANNELS 3 Zrotation Yrotation Xrotation
					JOINT LeftToeBase
					{
						OFFSET 0.200000 -0.500000 1.950000
						CHANNELS 3 Zrotation Yrotation Xrotation
						End Site
						{
							OFFSET 0.000000 0.000000 0.000000
						}
					}
				}
			}
		}
	}
	JOINT RHipJoint
	{
		OFFSET 0.000000 0.000000 0.000000
		CHANNELS 3 Zrotation Yrotation Xrotation
		JOINT RightUpLeg
		{
			OFFSET -1.800000 -1.400000 0.085000
			CHANNELS 3 Zrotation Yrotation Xrotation
			JOINT RightLeg
			{
				OFFSET -2.215000 -6.000000 0.000000
				CHANNELS 3 Zrotation Yrotation Xrotation
				JOINT RightFoot
				{
					OFFSET -2.500000 -6.900000 0.000000
					CHANNELS 3 Zrotation Yrotation Xrotation
					JOINT RightToeBase
					{
						OFFSET -0.200000 -0.500000 1.950000
						CHANNELS 3 Zrotation Yrotation Xrotation
						End Site
						{
							OFFSET 0.000000 0.000000 0.000000
						}
					}
				}
			}
		}
	}
	JOINT LowerBack
	{
		OFFSET 0.000000 0.000000 0.000000
		CHANNELS 3 Zrotation Yrotation Xrotation
		JOINT Spine
		{
			OFFSET -0.087000 1.940000 -0.288900
			CHANNELS 3 Zrotation Yrotation Xrotation
			JOINT Spine1
			{
				OFFSET 0.000000 1.950000 0.060000
				CHANNELS 3 Zrotation Yrotation Xrotation
				JOINT Neck
				{
					OFFSET 0.000000 0.000000 0.000000
					CHANNELS 3 Zrotation Yrotation Xrotation
					JOINT Neck1
					{
						OFFSET 0.000000 1.600000 0.340000
						CHANNELS 3 Zrotation Yrotation Xrotation
						JOINT Head
						{
							OFFSET 0.000000 1.667000 -0.240000
							CHANNELS 3 Zrotation Yrotation Xrotation
							End Site
							{
								OFFSET 0.000000 0.000000 0.000000
							}
						}
					}
				}
				JOINT LeftShoulder
				{
					OFFSET 0.000000 0.000000 0.000000
					CHANNELS 3 Zrotation Yrotation Xrotation
					JOINT LeftArm
					{
						OFFSET 2.700000 1.550000 -0.730000
						CHANNELS 3 Zrotation Yrotation Xrotation
						JOINT LeftForeArm
						{
							OFFSET 5.450000 0.000000 0.000000
							CHANNELS 3 Zrotation Yrotation Xrotation
							JOINT LeftHand
							{
								OFFSET 3.450000 0.000000 0.000000
								CHANNELS 3 Zrotation Yrotation Xrotation
								JOINT LeftHandIndex1
								{
									OFFSET 0.750000 0.000000 0.000000
									CHANNELS 3 Zrotation Yrotation Xrotation
									End Site
									{
										OFFSET 0.000000 0.000000 0.000000
									}
								}
							}
						}
					}
				}
				JOINT RightShoulder
				{
					OFFSET 0.000000 0.000000 0.000000
					CHANNELS 3 Zrotation Yrotation Xrotation
					JOINT RightArm
					{
						OFFSET -2.700000 1.550000 -0.730000
						CHANNELS 3 Zrotation Yrotation Xrotation
						JOINT RightForeArm
						{
							OFFSET -5.450000 0.000000 0.000000
							CHANNELS 3 Zrotation Yrotation Xrotation
							JOINT RightHand
							{
								OFFSET -3.450000 0.000000 0.000000
								CHANNELS 3 Zrotation Yrotation Xrotation
								JOINT RightHandIndex1
								{
									OFFSET -0.750000 0.000000 0.000000
									CHANNELS 3 Zrotation Yrotation Xrotation
									End Site
									{
										OFFSET 0.000000 0.000000 0.000000
									}
								}
							}
						}
					}
				}
			}
		}
	}
}
MOTION
Frames: 14
Frame Time: 0.016667
-0.157890 16.877030 -1.578630 -7.653981 -22.808501 6.542163 -15.108947 14.793146 3.616933 7.763165 -2.117704 -21.222263 -4.380925 3.775519 6.295887 -0.665951 3.428561 3.626514 -0.395710 -0.592260 -0.858080 17.929662 -10.134208 3.537929 -0.333538 0.602633 -3.598020 5.748368 -3.888615 3.600315 -0.273103 -3.289677 3.505261 -0.262420 1.005630 0.048310 -2.564484 -5.555796 -7.657189 29.420838 -5.316635 15.843028 -26.423943 -5.096418 -24.851903 18.958505 -13.560524 -20.533001 -44.779891 19.245003 28.889014 11.893510 -1.851050 -1.135420 2.807484 22.417657 -3.271721 -59.106322 16.991759 -4.330287 -3.516984 2.809024 -0.803886 -4.166733 2.228378 0.666570 0.147820 -0.218450 0.381740 -31.931485 8.667844 4.774286 -40.955819 -2.579653 -0.774160 -21.104522 0.420465 0.932346 2.946235 -0.627727 -0.567950 0.765520 0.610880 0.206620 
-0.165070 16.875300 -1.567580 -7.876986 -23.711309 7.531795 -15.209601 15.009513 3.721572 7.329717 -2.196889 -22.081609 -4.186816 3.773252 6.517434 -0.632198 3.385817 3.636719 -0.438260 -0.637570 -0.892700 17.808789 -9.957844 3.553783 -0.183720 0.761142 -4.240726 5.904369 -3.749015 3.295037 -0.227116 -3.149195 3.559264 -0.299180 1.012320 0.033660 -2.229491 -6.304541 -7.744130 27.921324 -4.967780 16.098708 -22.835596 -4.750039 -26.359101 19.202843 -13.340789 -20.924321 -46.579740 19.846382 27.733792 12.223350 -1.933370 -0.073740 4.583080 24.905854 -3.298102 -63.695852 18.520271 -4.989107 -3.951279 2.895341 -0.730242 -4.194461 2.176340 0.657570 0.137090 -0.226640 0.373750 -32.826137 7.140915 4.710554 -39.009108 -3.162828 -0.514255 -22.445780 -0.113555 1.184324 3.086617 -0.626116 -0.567330 0.760070 0.627380 0.219760 
-0.170980 16.874650 -1.558560 -7.895184 -23.882231 7.962653 -15.253655 15.063589 3.783337 7.186297 -2.269598 -22.504883 -4.498972 3.858146 6.780049 -0.616774 3.394981 3.627368 -0.433730 -0.651890 -0.875940 17.755195 -9.891969 3.551980 -0.605207 0.829770 -4.463754 6.434930 -3.764480 2.948091 -0.238306 -3.103373 3.575638 -0.324740 0.992210 0.041760 -2.096073 -6.604370 -7.838488 27.019177 -4.500542 15.910741 -21.181006 -4.138418 -27.300211 18.978468 -13.196779 -20.911383 -47.083204 20.394914 28.699813 12.567920 -1.845010 -0.026650 4.489505 24.927598 -3.017121 -65.324021 19.244045 -5.150824 -4.849743 4.199512 -0.669714 -4.187693 2.150211 0.693790 0.112630 -0.200550 0.375240 -31.957714 6.364678 5.279248 -38.136012 -4.602049 0.272489 -23.734992 -0.361844 1.469917 3.154828 -0.624012 -0.560570 0.749200 0.619670 0.212080 
-0.173800 16.875550 -1.560180 -7.613592 -24.050931 7.567847 -15.233299 15.050373 3.776066 6.777594 -2.331345 -22.313293 -4.195202 3.807833 7.098823 -0.653941 3.338300 3.628830 -0.408240 -0.647490 -0.810320 17.762836 -9.965646 3.536431 -1.427692 0.774719 -4.234920 6.788220 -3.905215 2.949349 -0.285110 -3.113210 3.559395 -0.336370 0.921380 0.043980 -2.130419 -6.504035 -7.904175 26.150113 -3.834124 16.040740 -21.451520 -3.378415 -28.097662 18.584787 -12.994570 -20.472918 -45.955987 20.708625 32.205486 12.544940 -1.492510 -1.452090 2.217115 22.862100 -2.659771 -63.874247 19.375724 -5.329619 -5.415707 4.400711 -0.767937 -4.121671 2.135011 0.776600 0.064510 -0.143120 0.351960 -29.367732 6.405160 6.261925 -37.896273 -6.878835 1.451385 -25.148981 -0.399396 1.829163 3.178650 -0.588604 -0.564220 0.739470 0.605840 0.167620 
-0.179530 16.866460 -1.560180 -7.515238 -24.267295 7.362539 -15.233539 15.054864 3.780697 6.464091 -2.379143 -22.345511 -3.942667 3.778814 7.351490 -0.667803 3.293589 3.634345 -0.408690 -0.657580 -0.785660 17.759547 -9.991630 3.510812 -1.853693 0.692897 -4.038631 6.926299 -4.004303 3.109212 -0.302641 -3.115757 3.555209 -0.352040 0.884530 0.034790 -2.127456 -6.517639 -7.955770 25.553719 -3.457899 16.028211 -21.120314 -2.740790 -28.467147 18.210740 -12.926584 -20.243103 -45.422800 20.849674 34.155669 12.639280 -1.378870 -1.965780 0.977018 21.541674 -2.137747 -63.854659 19.940840 -5.964120 -5.531473 3.518424 -0.859387 -4.077151 2.120083 0.818500 0.035440 -0.117090 0.336610 -27.704215 6.374247 6.954860 -37.682007 -8.745902 2.318444 -26.543325 -1.204242 2.183787 3.222825 -0.544567 -0.570230 0.734630 0.601640 0.146040 
-0.186000 16.860210 -1.559880 -7.530749 -24.467455 7.149888 -15.248067 15.083682 3.798571 6.342890 -2.405491 -22.405492 -3.903434 3.794246 7.525155 -0.683798 3.300252 3.627117 -0.419930 -0.682950 -0.776370 17.743034 -9.988593 3.479793 -2.036363 0.600111 -3.799517 6.983062 -4.119330 3.442523 -0.311994 -3.122938 3.556056 -0.369630 0.873270 0.032630 -2.081678 -6.611855 -8.012967 25.108542 -3.119182 16.096335 -20.586561 -2.147780 -29.003329 17.913787 -12.734014 -20.136474 -44.978952 21.348784 36.202133 12.639870 -1.175930 -1.730530 -0.016376 20.391095 -1.545817 -63.788928 20.883254 -6.547428 -6.029886 2.915812 -0.962613 -4.056920 2.094589 0.854360 0.026000 -0.103420 0.326850 -26.309862 6.455281 7.489436 -37.781487 -10.001114 3.085876 -27.721454 -2.200133 2.534592 3.221099 -0.491593 -0.584160 0.738150 0.609590 0.127890 
-0.193110 16.852230 -1.561550 -7.477813 -24.431857 6.928959 -15.263669 15.109900 3.828197 6.103416 -2.482281 -22.639031 -3.885525 3.797317 7.716119 -0.689923 3.285976 3.623162 -0.424170 -0.704210 -0.756650 17.724434 -9.991850 3.442711 -2.183823 0.542502 -3.638330 6.998792 -4.250664 4.004988 -0.321262 -3.125354 3.550654 -0.390350 0.850110 0.038940 -2.036678 -6.690782 -8.064608 24.541352 -2.887959 16.300730 -20.085675 -1.787735 -29.609969 17.705044 -12.581225 -20.062155 -44.358569 21.564514 37.892519 12.432860 -0.919570 -1.567280 -0.854692 19.924555 -1.151774 -63.682231 22.356357 -7.640021 -6.123936 1.181530 -1.122709 -4.027489 2.081619 0.883340 0.012120 -0.085710 0.315130 -25.136707 6.270164 7.950118 -37.598136 -10.950732 3.638198 -29.043724 -3.416822 2.927209 3.244722 -0.454119 -0.584930 0.723760 0.610530 0.110030 
-0.203060 16.840730 -1.565230 -7.263771 -24.126689 6.537234 -15.297443 15.146885 3.855914 5.814551 -2.569577 -22.854474 -3.903147 3.817989 7.982303 -0.681966 3.276013 3.616904 -0.423260 -0.715480 -0.735210 17.691527 -9.979885 3.394769 -2.357499 0.465167 -3.416410 6.987187 -4.375518 4.591257 -0.329846 -3.136189 3.537355 -0.407220 0.828380 0.050040 -1.951402 -6.814245 -8.132929 23.499824 -2.593804 16.629213 -19.011433 -1.343845 -30.098860 17.548533 -12.476279 -19.917708 -43.961391 21.699029 39.156267 12.109390 -0.691010 -1.205070 -1.446539 19.663192 -0.857619 -64.029018 23.360471 -8.498779 -5.754943 -0.186572 -1.197066 -4.010978 2.080995 0.895990 0.001410 -0.069390 0.305480 -24.227850 5.988506 8.263588 -37.586484 -11.741232 4.161465 -30.553542 -4.916340 3.381942 3.273883 -0.433895 -0.574980 0.702890 0.606370 0.100130 
-0.209450 16.827110 -1.568150 -7.094406 -23.669649 6.248582 -15.340543 15.188231 3.884466 5.476200 -2.676528 -23.239703 -3.784580 3.811310 8.250160 -0.686795 3.261436 3.619567 -0.435280 -0.743010 -0.735380 17.653915 -9.949879 3.343101 -2.444983 0.417893 -3.317319 7.001803 -4.491286 5.179910 -0.322841 -3.142499 3.537682 -0.426830 0.825580 0.052130 -1.855722 -6.969108 -8.195252 22.468253 -2.442476 17.032715 -17.700878 -0.962363 -30.585040 17.339836 -12.560195 -19.776889 -43.702399 21.475594 39.595094 11.972540 -0.800020 -0.995140 -1.636203 20.020334 -0.678302 -64.675238 24.508384 -9.686324 -5.500819 -2.541150 -1.346465 -3.994573 2.070861 0.907490 -0.002410 -0.072050 0.300370 -23.569276 5.457495 8.494778 -37.290828 -12.084845 4.381146 -32.398738 -6.742260 3.933689 3.301105 -0.418981 -0.579460 0.693630 0.613280 0.092600 
-0.214900 16.817770 -1.569190 -6.833740 -23.200510 6.016414 -15.392803 15.234840 3.920447 4.944536 -2.804226 -23.648602 -3.574774 3.759904 8.342751 -0.678955 3.206489 3.637690 -0.449860 -0.763470 -0.737920 17.607380 -9.909002 3.293130 -2.608984 0.411633 -3.294002 7.042131 -4.573103 5.652574 -0.314251 -3.133674 3.544444 -0.447630 0.816200 0.047060 -1.735557 -7.153421 -8.266109 21.340152 -2.170095 17.392828 -16.212459 -0.554989 -31.103138 17.243424 -12.572538 -19.849036 -43.665670 21.272867 40.017704 11.803420 -0.920110 -0.692820 -1.479421 20.310061 -0.416111 -65.597588 25.472411 -10.653566 -5.545962 -4.054210 -1.425888 -3.976531 2.056338 0.912200 -0.011340 -0.069640 0.295130 -23.274352 5.124667 8.863035 -36.636513 -12.511907 4.401297 -34.739696 -8.640336 4.633031 3.362361 -0.418148 -0.578190 0.683320 0.613210 0.090990 
-0.220750 16.811560 -1.569820 -6.556974 -22.573281 5.790779 -15.446348 15.276855 3.950555 4.397775 -2.927132 -24.017019 -3.314449 3.695983 8.399862 -0.675436 3.151681 3.656606 -0.468150 -0.784870 -0.748550 17.561070 -9.865824 3.251361 -2.720467 0.395300 -3.196317 7.087686 -4.643948 6.012418 -0.304288 -3.136018 3.551379 -0.465800 0.812600 0.041200 -1.617493 -7.330107 -8.336291 20.285623 -1.853718 17.688856 -14.774698 -0.185660 -31.656310 17.177356 -12.602475 -19.893450 -43.713599 21.042509 40.480626 11.499820 -1.131050 -0.344540 -1.242915 20.798366 -0.286799 -66.538816 26.298133 -11.452617 -5.224519 -5.164944 -1.471130 -3.972645 2.031747 0.912540 -0.014290 -0.072340 0.289890 -23.122095 4.735540 9.149000 -36.024956 -12.539293 4.337546 -37.289622 -10.521777 5.421521 3.408409 -0.424820 -0.578920 0.677040 0.618120 0.091080 
-0.222020 16.805780 -1.569940 -6.514408 -21.852253 5.636038 -15.498485 15.321698 3.976564 4.069022 -3.020153 -24.446802 -3.064626 3.652889 8.508496 -0.672344 3.116427 3.670871 -0.486950 -0.808460 -0.758610 17.518571 -9.809349 3.212710 -2.673755 0.371993 -3.086339 7.209180 -4.734225 6.439129 -0.291581 -3.147391 3.558533 -0.482720 0.815130 0.033670 -1.511861 -7.528530 -8.403129 19.713552 -1.542050 17.967383 -13.619861 0.307204 -32.211201 17.140362 -12.641919 -19.889919 -43.554503 20.785126 41.091443 11.048120 -1.313310 0.437620 -1.274756 20.980420 -0.169639 -67.291243 26.939170 -11.996407 -4.896979 -5.636542 -1.478591 -3.977837 2.008093 0.908070 -0.009980 -0.081680 0.286520 -22.854436 4.631055 9.412308 -35.646671 -12.571453 4.307228 -40.148091 -12.349860 6.331983 3.425621 -0.448524 -0.582980 0.672330 0.622060 0.090270 
-0.222730 16.799750 -1.571770 -6.504236 -21.187800 5.401935 -15.541480 15.356205 3.983665 3.767073 -3.060110 -24.625273 -2.707969 3.575235 8.445273 -0.674269 3.090570 3.685096 -0.509060 -0.837310 -0.772980 17.485719 -9.766232 3.181206 -2.643212 0.336788 -2.865909 7.336071 -4.828816 6.772223 -0.285372 -3.178013 3.556118 -0.499380 0.827910 0.036170 -1.430002 -7.670408 -8.465312 19.318947 -1.088002 18.231273 -12.766862 0.938784 -32.681287 17.062164 -12.626048 -19.859632 -43.244242 20.674080 42.121810 10.549090 -1.467360 1.407420 -1.515797 20.948877 -0.011908 -67.595045 27.607320 -12.423420 -4.977091 -6.053704 -1.498903 -3.990660 1.985040 0.905060 0.002410 -0.089450 0.285370 -22.435636 4.678212 9.585717 -35.572248 -12.534752 4.362368 -43.118893 -13.890673 7.313040 3.401143 -0.475735 -0.588890 0.672010 0.633170 0.091140 
-0.222050 16.797040 -1.576450 -6.453454 -20.411861 5.180621 -15.581413 15.385957 3.988320 3.401993 -3.118643 -24.831226 -2.210735 3.466774 8.438359 -0.676375 3.051283 3.703019 -0.523370 -0.859220 -0.780740 17.454271 -9.730437 3.156939 -2.639722 0.326504 -2.705989 7.526335 -4.921897 7.044242 -0.283610 -3.209788 3.549102 -0.514740 0.836580 0.047020 -1.355883 -7.789806 -8.529123 18.836904 -0.653830 18.506419 -11.956953 1.508302 -33.198442 16.988495 -12.602755 -19.752390 -42.630699 20.387697 43.224170 10.030480 -1.632970 2.186490 -1.717286 21.166025 -0.069811 -67.772829 28.054287 -12.571071 -4.729381 -5.759161 -1.476919 -4.013328 1.966633 0.902210 0.014310 -0.092590 0.285380 -22.084221 4.583403 9.747665 -35.051277 -12.172064 4.211169 -46.619093 -15.419945 8.478987 3.379620 -0.521496 -0.587820 0.664420 0.640160 0.092160 
